# xmcd
#
# Track frame offsets: 
#        150
#        14975
#        35981
#        59693
#        76911
#        97017
#        117222
#        143114
#        171790
#        189643
#
# Disc length: 2848 seconds
#
# Revision: 0
# Processed by: cddbd v1.5.2PL0 Copyright (c) Steve Scherf et al.
# Submitted via: ExactAudioCopy v1.0b3
#
DISCID=930b1e0a
DTITLE=Various Artist - Noi Buon Chau Pha
DYEAR=2002
DGENRE=
TTITLE0=Thai Chau - Noi buon Chau Pha
TTITLE1=Huong Lan - Giac ngu dau noi
TTITLE2=Truong Vu - Xin yeu toi bang ca tinh nguoi
TTITLE3=Hoai Nam - Hoa cau vuon trau
TTITLE4=Huong Lan - Thuyen tinh tren song
TTITLE5=Thai Chau - Em
TTITLE6=Truong Vu - Chuyen binh thuong
TTITLE7=Huong Lan - Ngot ngao huong vi tinh yeu
TTITLE8=Hoai Nam - Cay dan bo quen
TTITLE9=Thai Chau - Dem lang thang
EXTD=
EXTT0=
EXTT1=
EXTT2=
EXTT3=
EXTT4=
EXTT5=
EXTT6=
EXTT7=
EXTT8=
EXTT9=
PLAYORDER=
